<?xml version="1.0" encoding="UTF-8" standalone="no"?>
<!DOCTYPE svg PUBLIC "-//W3C//DTD SVG 1.1//EN"
 "http://www.w3.org/Graphics/SVG/1.1/DTD/svg11.dtd">
<!-- Generated by graphviz version 2.26.3 (20100126.1600)
 -->
<!-- Title: G Pages: 1 -->
<svg width="656pt" height="552pt"
 viewBox="0.00 0.00 656.00 552.00" xmlns="http://www.w3.org/2000/svg" xmlns:xlink="http://www.w3.org/1999/xlink">
<g id="graph1" class="graph" transform="scale(1 1) rotate(0) translate(4 548)">
<title>G</title>
<polygon fill="white" stroke="white" points="-4,5 -4,-548 653,-548 653,5 -4,5"/>
<g id="graph2" class="cluster"><title>cluster_Global</title>
<polyline fill="none" stroke="gray" points="432,-8 628,-8 "/>
<path fill="none" stroke="gray" d="M628,-8C634,-8 640,-14 640,-20"/>
<polyline fill="none" stroke="gray" points="640,-20 640,-524 "/>
<path fill="none" stroke="gray" d="M640,-524C640,-530 634,-536 628,-536"/>
<polyline fill="none" stroke="gray" points="628,-536 432,-536 "/>
<path fill="none" stroke="gray" d="M432,-536C426,-536 420,-530 420,-524"/>
<polyline fill="none" stroke="gray" points="420,-524 420,-20 "/>
<path fill="none" stroke="gray" d="M420,-20C420,-14 426,-8 432,-8"/>
<text text-anchor="middle" x="530" y="-522.1" font-family="Times Roman,serif" font-size="11.00" fill="gray">Global</text>
</g>
<g id="graph3" class="cluster"><title>cluster_\Hpolthof</title>
<polyline fill="none" stroke="gray" points="440,-16 620,-16 "/>
<path fill="none" stroke="gray" d="M620,-16C626,-16 632,-22 632,-28"/>
<polyline fill="none" stroke="gray" points="632,-28 632,-494 "/>
<path fill="none" stroke="gray" d="M632,-494C632,-500 626,-506 620,-506"/>
<polyline fill="none" stroke="gray" points="620,-506 440,-506 "/>
<path fill="none" stroke="gray" d="M440,-506C434,-506 428,-500 428,-494"/>
<polyline fill="none" stroke="gray" points="428,-494 428,-28 "/>
<path fill="none" stroke="gray" d="M428,-28C428,-22 434,-16 440,-16"/>
<text text-anchor="middle" x="530" y="-492.1" font-family="Times Roman,serif" font-size="11.00" fill="gray">Hpolthof</text>
</g>
<g id="graph4" class="cluster"><title>cluster_\Hpolthof\Docmail</title>
<polyline fill="none" stroke="gray" points="448,-24 612,-24 "/>
<path fill="none" stroke="gray" d="M612,-24C618,-24 624,-30 624,-36"/>
<polyline fill="none" stroke="gray" points="624,-36 624,-464 "/>
<path fill="none" stroke="gray" d="M624,-464C624,-470 618,-476 612,-476"/>
<polyline fill="none" stroke="gray" points="612,-476 448,-476 "/>
<path fill="none" stroke="gray" d="M448,-476C442,-476 436,-470 436,-464"/>
<polyline fill="none" stroke="gray" points="436,-464 436,-36 "/>
<path fill="none" stroke="gray" d="M436,-36C436,-30 442,-24 448,-24"/>
<text text-anchor="middle" x="530" y="-462.1" font-family="Times Roman,serif" font-size="11.00" fill="gray">Docmail</text>
</g>
<!-- \\Hpolthof\\Docmail\\DocmailException -->
<g id="node4" class="node"><title>\\Hpolthof\\Docmail\\DocmailException</title>
<polygon fill="none" stroke="black" points="592,-446 468,-446 468,-410 592,-410 592,-446"/>
<text text-anchor="middle" x="530" y="-425.1" font-family="Courier,monospace" font-size="11.00">DocmailException</text>
</g>
<!-- \\Exception -->
<g id="node13" class="node"><title>\\Exception</title>
<ellipse fill="none" stroke="black" cx="186" cy="-428" rx="62.9325" ry="18.3848"/>
<text text-anchor="middle" x="186" y="-424.4" font-family="Times Roman,serif" font-size="14.00" fill="gray">\Exception</text>
</g>
<!-- \\Hpolthof\\Docmail\\DocmailException&#45;&gt;\\Exception -->
<g id="edge5" class="edge"><title>\\Hpolthof\\Docmail\\DocmailException&#45;&gt;\\Exception</title>
<path fill="none" stroke="black" d="M467.305,-428C408.654,-428 321.049,-428 259.214,-428"/>
<polygon fill="none" stroke="black" points="259.136,-424.5 249.136,-428 259.136,-431.5 259.136,-424.5"/>
</g>
<!-- \\Hpolthof\\Docmail\\DocmailTemplateFile -->
<g id="node5" class="node"><title>\\Hpolthof\\Docmail\\DocmailTemplateFile</title>
<polygon fill="none" stroke="black" points="602,-230 458,-230 458,-194 602,-194 602,-230"/>
<text text-anchor="middle" x="530" y="-209.1" font-family="Courier,monospace" font-size="11.00">DocmailTemplateFile</text>
</g>
<!-- \\ArrayAccess -->
<g id="node15" class="node"><title>\\ArrayAccess</title>
<ellipse fill="none" stroke="black" cx="186" cy="-266" rx="73.0388" ry="18.3848"/>
<text text-anchor="middle" x="186" y="-262.4" font-family="Times Roman,serif" font-size="14.00" fill="gray">\ArrayAccess</text>
</g>
<!-- \\Hpolthof\\Docmail\\DocmailTemplateFile&#45;&gt;\\ArrayAccess -->
<g id="edge7" class="edge"><title>\\Hpolthof\\Docmail\\DocmailTemplateFile&#45;&gt;\\ArrayAccess</title>
<path fill="none" stroke="black" stroke-dasharray="1,5" d="M457.467,-223.386C398.77,-232.6 316.525,-245.511 257.977,-254.701"/>
<polygon fill="none" stroke="black" points="257.399,-251.249 248.063,-256.258 258.485,-258.164 257.399,-251.249"/>
</g>
<!-- \\Hpolthof\\Docmail\\DocmailService -->
<g id="node6" class="node"><title>\\Hpolthof\\Docmail\\DocmailService</title>
<polygon fill="none" stroke="black" points="585,-338 475,-338 475,-302 585,-302 585,-338"/>
<text text-anchor="middle" x="530" y="-317.1" font-family="Courier,monospace" font-size="11.00">DocmailService</text>
</g>
<!-- \\Hpolthof\\Docmail\\DocmailServiceProvider -->
<g id="node7" class="node"><title>\\Hpolthof\\Docmail\\DocmailServiceProvider</title>
<polygon fill="none" stroke="black" points="612,-176 448,-176 448,-140 612,-140 612,-176"/>
<text text-anchor="middle" x="530" y="-155.1" font-family="Courier,monospace" font-size="11.00">DocmailServiceProvider</text>
</g>
<!-- \\Illuminate\\Support\\ServiceProvider -->
<g id="node17" class="node"><title>\\Illuminate\\Support\\ServiceProvider</title>
<ellipse fill="none" stroke="black" cx="186" cy="-158" rx="184.763" ry="18.3848"/>
<text text-anchor="middle" x="186" y="-154.4" font-family="Times Roman,serif" font-size="14.00" fill="gray">\Illuminate\Support\ServiceProvider</text>
</g>
<!-- \\Hpolthof\\Docmail\\DocmailServiceProvider&#45;&gt;\\Illuminate\\Support\\ServiceProvider -->
<g id="edge9" class="edge"><title>\\Hpolthof\\Docmail\\DocmailServiceProvider&#45;&gt;\\Illuminate\\Support\\ServiceProvider</title>
<path fill="none" stroke="black" d="M447.166,-158C427.077,-158 404.745,-158 381.838,-158"/>
<polygon fill="none" stroke="black" points="381.636,-154.5 371.636,-158 381.636,-161.5 381.636,-154.5"/>
</g>
<!-- \\Hpolthof\\Docmail\\DocmailAddress -->
<g id="node8" class="node"><title>\\Hpolthof\\Docmail\\DocmailAddress</title>
<polygon fill="none" stroke="black" points="585,-392 475,-392 475,-356 585,-356 585,-392"/>
<text text-anchor="middle" x="530" y="-371.1" font-family="Courier,monospace" font-size="11.00">DocmailAddress</text>
</g>
<!-- \\Hpolthof\\Docmail\\DocmailAddress&#45;&gt;\\ArrayAccess -->
<g id="edge11" class="edge"><title>\\Hpolthof\\Docmail\\DocmailAddress&#45;&gt;\\ArrayAccess</title>
<path fill="none" stroke="black" stroke-dasharray="1,5" d="M474.336,-361.396C456.853,-357.155 437.54,-352.176 420,-347 355.715,-328.028 282.939,-302.121 235.859,-284.763"/>
<polygon fill="none" stroke="black" points="236.808,-281.383 226.215,-281.195 234.379,-287.948 236.808,-281.383"/>
</g>
<!-- \\Hpolthof\\Docmail\\DocmailMailing -->
<g id="node9" class="node"><title>\\Hpolthof\\Docmail\\DocmailMailing</title>
<polygon fill="none" stroke="black" points="585,-284 475,-284 475,-248 585,-248 585,-284"/>
<text text-anchor="middle" x="530" y="-263.1" font-family="Courier,monospace" font-size="11.00">DocmailMailing</text>
</g>
<!-- \\Hpolthof\\Docmail\\DocmailMailing&#45;&gt;\\ArrayAccess -->
<g id="edge13" class="edge"><title>\\Hpolthof\\Docmail\\DocmailMailing&#45;&gt;\\ArrayAccess</title>
<path fill="none" stroke="black" stroke-dasharray="1,5" d="M474.348,-266C418.935,-266 333.191,-266 269.594,-266"/>
<polygon fill="none" stroke="black" points="269.585,-262.5 259.585,-266 269.585,-269.5 269.585,-262.5"/>
</g>
<!-- \\Hpolthof\\Docmail\\DocmailFacade -->
<g id="node10" class="node"><title>\\Hpolthof\\Docmail\\DocmailFacade</title>
<polygon fill="none" stroke="black" points="582,-122 478,-122 478,-86 582,-86 582,-122"/>
<text text-anchor="middle" x="530" y="-101.1" font-family="Courier,monospace" font-size="11.00">DocmailFacade</text>
</g>
<!-- \\Illuminate\\Support\\Facades\\Facade -->
<g id="node21" class="node"><title>\\Illuminate\\Support\\Facades\\Facade</title>
<ellipse fill="none" stroke="black" cx="186" cy="-104" rx="181.934" ry="18.3848"/>
<text text-anchor="middle" x="186" y="-100.4" font-family="Times Roman,serif" font-size="14.00" fill="gray">\Illuminate\Support\Facades\Facade</text>
</g>
<!-- \\Hpolthof\\Docmail\\DocmailFacade&#45;&gt;\\Illuminate\\Support\\Facades\\Facade -->
<g id="edge15" class="edge"><title>\\Hpolthof\\Docmail\\DocmailFacade&#45;&gt;\\Illuminate\\Support\\Facades\\Facade</title>
<path fill="none" stroke="black" d="M477.754,-104C450.523,-104 415.342,-104 378.891,-104"/>
<polygon fill="none" stroke="black" points="378.582,-100.5 368.582,-104 378.582,-107.5 378.582,-100.5"/>
</g>
<!-- \\Hpolthof\\Docmail\\DocmailArrayAccessTrait -->
<g id="node11" class="node"><title>\\Hpolthof\\Docmail\\DocmailArrayAccessTrait</title>
<polygon fill="none" stroke="black" points="616,-68 444,-68 444,-32 616,-32 616,-68"/>
<text text-anchor="middle" x="530" y="-47.1" font-family="Courier,monospace" font-size="11.00">DocmailArrayAccessTrait</text>
</g>
</g>
</svg>
